<svg width="829" height="653" viewBox="0 0 829 653" fill="none" xmlns="http://www.w3.org/2000/svg">
<path d="M818 170.6C815.5 136.2 806.4 107 791 83.8C774.9 59.5 752.7 40.8 725 28.1C701.8 17.5 675.2 11.4 646.1 10C644.9 9.9 643.5 9.89999 642.1 9.89999H572.7C537.9 10.4 504.2 21.5 475.2 42C473.3 43.4 470.6 43.2 468.9 41.5C447.1 20.8 418.8 9.8 387 9.8H344.2C309.8 9.8 279.7 22.5 257.2 46.6L256 47.8C256 47.8 256 47.8 255.9 47.9L255.8 48C250.8 53.5 246.3 59.5 242.5 65.7C242.4 65.8 242.4 65.9 242.3 66L180.7 152.2C180.7 152.2 180.7 152.3 180.6 152.3C164.6 173.7 156.6 198.9 157.5 225.2C157.5 225.3 157.5 225.3 157.5 225.4V241.9C157.5 244.1 156 246.1 153.9 246.7C129.2 253.9 108.3 269.8 94.9 291.3C94.8 291.4 94.8 291.5 94.7 291.6L33.4 377.1C33.4 377.2 33.3 377.2 33.3 377.3C20.5 393.7 12.8 413.5 10.4 436.2C10.1 439.1 9.9 441.9 9.9 444.7V475.7C9.9 477.6 10 479.6 10.1 481.6C12.6 516 21.7 545.2 37.1 568.4C53.2 592.7 75.4 611.4 103.1 624.1C126.3 634.7 152.7 640.8 181.6 642.2C182.8 642.3 184.1 642.3 185.5 642.3H242.9C244.4 642.3 246 642.3 247.5 642.2C291.3 639.7 330.7 623.9 361.3 596.4C362.3 595.5 363.4 595.1 364.6 595.1C365.8 595.1 367 595.5 368 596.4C380.2 607.6 394.4 616.9 410.2 624.2C433.4 634.8 459.8 640.9 488.7 642.3C489.9 642.4 491.2 642.4 492.6 642.4H563C601.6 641.8 638.5 628.2 669.7 603C686.4 589.5 700.7 573.6 712.2 555.7C712.2 555.6 712.3 555.6 712.3 555.5L771.7 472.6C771.7 472.6 771.7 472.5 771.8 472.5C773.5 470.3 775.2 467.8 777.1 465.1C777.1 465.1 777.1 465 777.2 465C777.9 464 778.7 462.9 779.6 461.5C788.1 448.5 795.2 434.4 800.6 419.5C811.7 389.2 817.3 360.8 817.3 335.1C817.3 333.4 817.2 331.7 817.1 330.1C815.7 307.5 810.7 286.6 802.3 268.1C801.6 266.6 801.7 264.9 802.5 263.5C810.7 249.5 815.8 233.5 817.7 215.9C818 213.2 818.1 210.4 818.1 207.6V176.6C818.1 174.8 818 172.9 817.9 171.1C818.1 170.9 818 170.8 818 170.6ZM743.3 207.5C743.3 207.7 743.3 207.9 743.3 208C742.5 215.7 740.4 221.5 737.6 226L711.5 271.4C713.8 273.1 716 274.8 718 276.6C732.6 289.6 740.8 309.1 742.4 334.7C742.4 334.8 742.4 334.9 742.4 335C742.4 351.9 738.3 371.6 730.3 393.6C726.7 403.5 722 412.7 716.4 421.1L716.3 421.2L716 421.6C714.5 423.8 713 425.9 711.4 428L650.3 513.3C642.9 525.1 633.7 535.6 622.7 544.5C604.4 559.3 584 566.9 562 567.2H492.7C492.5 567.2 492.2 567.2 492 567.2C472.8 566.2 455.8 562.4 441.4 555.8C426.6 549.1 415 539.3 406.7 526.9C398.5 514.6 393.6 497.4 392 476C392 475.9 392 475.8 392 475.6V444.6C392 444.4 392 444.2 392 444.1C392.7 437.2 394.5 431.8 396.8 427.5L396.1 426.6L396 426.7L331.7 516.8C331.6 516.9 331.6 516.9 331.5 517C326 525 319.6 532.4 312.4 539.1C294.2 556.1 270.8 565.5 243 567.1C242.9 567.1 242.8 567.1 242.7 567.1H185.3C185.2 567.1 185.1 567.1 185.1 567.1C165.7 566.2 148.6 562.3 134.1 555.7C119.3 549 107.7 539.2 99.4 526.8C91.2 514.5 86.3 497.3 84.7 475.9C84.7 475.8 84.7 475.7 84.7 475.5V444.5C84.7 444.3 84.7 444.1 84.7 444C85.7 434.5 88.6 427.7 92.5 422.9L157.5 332.1C163.5 321.2 173.6 317.7 182.3 317C182.4 317 182.6 317 182.7 317H232.2V223.3C231.6 213.6 234.5 204.6 240.7 196.5L305 106.9C306.7 103.9 308.7 101 311.3 98.2C319.4 89.3 330.3 84.8 343.9 84.8H386.7C400.3 84.8 411.2 89.3 419.3 98.3C427.3 107.2 431 117.2 430.4 128.2V214.5L482.3 142.7C486.7 135 491.9 127.9 497.8 121.3C498 121.1 498.2 120.9 498.3 120.7C502.6 116 507.3 111.6 512.3 107.5C530.5 92.7 551.1 85.1 573.4 84.8H641.8C641.9 84.8 642 84.8 642 84.8C661.7 85.7 679 89.6 693.5 96.2C708.3 102.9 719.9 112.7 728.2 125.1C736.4 137.5 741.3 154.6 742.9 176C742.9 176.1 742.9 176.2 742.9 176.4V207.5H743.3Z" fill="#FCBA28"/>
<path d="M828 169.9C828 169.8 828 169.6 828 169.5C825.3 133.6 815.7 102.9 799.4 78.3C782.3 52.4 758.6 32.5 729.2 19C704.8 7.9 677 1.5 646.6 0.0999985C645.2 -1.52737e-06 643.7 0 642.2 0H572.6C537.1 0.5 502.6 11.4 472.8 31.6C449.6 10.9 420 0 387 0H344.2C306.9 0 274.3 13.8 249.9 40C249.8 40.1 249.8 40.1 249.7 40.2L248.7 41.3C248.6 41.4 248.5 41.5 248.4 41.6C243.1 47.5 238.3 53.9 234.1 60.5L172.5 146.3C155.1 169.5 146.5 196.9 147.4 225.4V238.2C122 246.6 100.4 263.4 86.4 285.9L25.4 371.2C11.5 389.1 3.1 410.6 0.5 435.1C0.2 438.3 0 441.6 0 444.7V475.7C0 477.8 0.100001 480 0.200001 482.3C2.9 518.4 12.5 549.3 28.8 573.9C45.9 599.8 69.6 619.7 99 633.2C123.4 644.3 151 650.7 181.2 652.2C182.6 652.3 184 652.3 185.6 652.3H243C244.7 652.3 246.4 652.3 248.2 652.2C292.7 649.7 332.9 634 364.8 606.8C377 617.4 390.9 626.3 406.3 633.3C430.7 644.4 458.3 650.8 488.5 652.3C489.9 652.4 491.3 652.4 492.9 652.4H563.4C604.3 651.8 643.3 637.4 676.3 610.7C693.8 596.6 708.7 579.9 720.9 561.2L780.2 478.5C782 476.2 783.8 473.7 785.7 470.9C786.5 469.8 787.4 468.5 788.3 467.1C797.2 453.5 804.6 438.7 810.3 423.1C821.8 391.7 827.6 362.2 827.6 335.2C827.6 333.3 827.5 331.4 827.4 329.6C826 306.7 821 285.5 812.8 266.5C821 251.8 826.1 235.3 828 217.2C828.3 214.1 828.5 211 828.5 207.8V176.8C828.3 174.4 828.2 172.2 828 169.9ZM818.3 207.5C818.3 210.3 818.2 213.1 817.9 215.8C816 233.4 810.9 249.4 802.7 263.4C801.9 264.8 801.8 266.5 802.5 268C810.9 286.5 815.9 307.4 817.3 330C817.4 331.6 817.5 333.3 817.5 335C817.5 360.7 811.9 389.1 800.8 419.4C795.4 434.3 788.3 448.4 779.8 461.4C778.9 462.8 778.2 463.9 777.4 464.9C777.4 464.9 777.4 465 777.3 465C775.4 467.7 773.7 470.1 772 472.4C772 472.4 772 472.5 771.9 472.5L712.5 555.4C712.5 555.5 712.4 555.5 712.4 555.6C700.9 573.5 686.5 589.4 669.9 602.9C638.7 628.1 601.8 641.8 563.2 642.3H492.7C491.4 642.3 490.1 642.3 488.8 642.2C459.9 640.8 433.5 634.7 410.3 624.1C394.4 616.9 380.2 607.5 368.1 596.3C367.1 595.4 365.9 595 364.7 595C363.5 595 362.3 595.4 361.4 596.3C330.8 623.8 291.4 639.6 247.6 642.1C246 642.2 244.5 642.2 243 642.2H185.6C184.3 642.2 183 642.2 181.7 642.1C152.8 640.7 126.4 634.6 103.2 624C75.5 611.4 53.3 592.6 37.2 568.3C21.8 545.1 12.8 515.9 10.2 481.5C10.1 479.5 10 477.5 10 475.6V444.6C10 441.8 10.2 438.9 10.5 436.1C12.9 413.4 20.7 393.6 33.4 377.2C33.4 377.1 33.5 377.1 33.5 377L94.8 291.5C94.9 291.4 94.9 291.3 95 291.2C108.4 269.7 129.3 253.8 154 246.6C156.1 246 157.6 244 157.6 241.8V225.3C157.6 225.2 157.6 225.2 157.6 225.1C156.7 198.8 164.7 173.6 180.7 152.2C180.7 152.2 180.7 152.1 180.8 152.1L242.5 66.1C242.6 66 242.6 65.9 242.7 65.8C246.5 59.6 251 53.6 256 48.1L256.1 48C256.1 48 256.1 48 256.2 47.9L257.4 46.7C279.9 22.6 309.9 9.89999 344.4 9.89999H387.2C419 9.89999 447.3 20.8 469.1 41.6C470.8 43.2 473.5 43.4 475.4 42.1C504.4 21.6 538.1 10.5 572.9 10H642.4C643.8 10 645.1 10 646.4 10.1C675.5 11.5 702.1 17.6 725.3 28.2C753 40.9 775.2 59.6 791.3 83.9C806.7 107.1 815.7 136.3 818.3 170.7C818.3 170.8 818.3 171 818.3 171.1C818.4 173 818.5 174.8 818.5 176.6V207.5H818.3Z" fill="#231F20"/>
<path d="M183.2 327.3C171 328.4 164.5 335.5 162.9 349.9V380.4C164.4 400 168.8 415.5 176 426.3C183.2 437.1 193.4 445.7 206.5 451.6C219.8 457.7 235.7 461.2 253.7 462.1H310.8C336.1 460.6 357.3 452.1 373.8 436.8C390.5 421.3 402.4 401.8 409.3 378.9C416.3 355.6 420.1 332.3 420.7 309.5V128.3C420.7 128.2 420.7 128.1 420.7 128C421.2 119.6 418.4 112.2 412.2 105.2C406 98.3 397.7 95 387 95H344.2C333.4 95 325.2 98.3 319 105.2C312.7 112.1 310 119.6 310.5 127.9C310.5 128 310.5 128.1 310.5 128.2V307.6C310.5 307.7 310.5 307.8 310.5 307.9C309.9 319 308.8 330.3 307.3 341.7C305.7 353.8 302.9 363.1 298.9 370.2C298.6 370.6 298.3 371 298 371.4C291.9 377.1 284.5 377.1 277.8 371.6C277.7 371.5 277.5 371.4 277.4 371.3C274.1 368 272.9 361.6 273.2 349.8C271.6 335.5 265 328.3 252.5 327.3H183.2Z" fill="#ED203D"/>
<path d="M648.6 254.9C607.9 243.8 598.8 238.2 595.4 235C589.9 229.7 587 223.3 586.6 215.9C586.6 215.8 586.6 215.6 586.6 215.5C586.9 203 589.1 193.6 593.2 186.7C593.4 186.3 593.7 185.9 594.1 185.6C600.1 180 607.3 179.9 614 185.2C619.1 188.4 621.6 195.5 621.6 207.3C622.9 221.6 629.5 228.8 642.3 229.9H712.5C725 228.8 731.6 221.6 733.2 207.3V176.8C731.7 157.2 727.3 141.8 720.1 130.9C712.9 120.1 702.7 111.5 689.6 105.6C676.3 99.5 660.3 96 641.9 95.1H573.7C553.7 95.4 535.2 102.3 518.8 115.6C502.1 129.1 489.9 146.3 482.3 166.9C474.7 187.8 470.9 206.3 471.2 221.9C472.3 244.6 479.3 261.8 491.8 273C504.8 284.6 525.9 294.4 554.5 302.2C594.8 313.2 604.1 318.6 607.7 322.1C613.2 327.4 616.1 333.8 616.5 341.1C616.5 341.2 616.5 341.4 616.5 341.5C616.2 354 613.6 363.8 608.8 370.6C608.6 370.9 608.4 371.2 608.1 371.4C602 377.1 594.7 377.1 588.2 371.5L588.1 371.4C582.9 366.5 580.2 359.3 580.1 349.8C578.5 335.5 571.9 328.3 559.4 327.2H490.7C478.2 328.3 471.6 335.5 470 349.8V380.3C471.5 399.9 475.9 415.4 483.1 426.2C490.3 437 500.5 445.6 513.6 451.5C526.9 457.6 542.9 461.1 560.9 462C561 462 561 462 561.1 462H629.9C649.5 461.7 667.9 454.8 684.4 441.5C701.1 428 713.3 410.7 720.9 390.2C728.5 369.4 732.4 350.8 732.4 335.2C730.9 312.5 723.9 295.3 711.3 284.1C698.2 272.5 677.2 262.7 648.6 254.9Z" fill="#ED203D"/>
<path d="M728.5 125.3C720.3 112.9 708.6 103.2 693.8 96.4C679.3 89.8 662 86 642.3 85C642.2 85 642.1 85 642.1 85H573.7C551.4 85.3 530.8 93 512.6 107.7C507.5 111.8 502.9 116.2 498.6 120.9C498.4 121.1 498.2 121.3 498.1 121.5C492.2 128.1 487 135.2 482.6 142.9L430.7 214.8V128.5C431.3 117.5 427.6 107.4 419.6 98.6C411.5 89.7 400.5 85.1 387 85.1H344.2C330.7 85.1 319.7 89.6 311.6 98.5C309.1 101.3 307 104.2 305.3 107.2L241 196.8C234.8 204.9 231.9 213.9 232.5 223.6V317.3H183C182.9 317.3 182.7 317.3 182.6 317.3C173.9 318 163.8 321.4 157.8 332.4L92.8 423.2C88.9 428 86 434.8 85 444.3C85 444.5 85 444.7 85 444.8V475.8C85 475.9 85 476 85 476.2C86.6 497.6 91.5 514.7 99.7 527.1C107.9 539.5 119.6 549.2 134.4 556C148.9 562.6 166.1 566.4 185.4 567.4C185.5 567.4 185.6 567.4 185.6 567.4H243C243.1 567.4 243.2 567.4 243.3 567.4C271.1 565.8 294.4 556.4 312.7 539.4C319.9 532.7 326.3 525.3 331.8 517.3C331.9 517.2 331.9 517.2 332 517.1L396.3 427L396.4 426.9L397.1 427.8C394.7 432.1 393 437.5 392.3 444.4C392.3 444.6 392.3 444.8 392.3 444.9V475.9C392.3 476 392.3 476.1 392.3 476.3C393.9 497.7 398.8 514.8 407 527.2C415.2 539.6 426.9 549.3 441.7 556.1C456.1 562.7 473.1 566.5 492.3 567.5C492.5 567.5 492.8 567.5 493 567.5H562.3C584.3 567.2 604.7 559.5 623 544.8C634 535.9 643.3 525.4 650.6 513.6L711.7 428.3C713.3 426.2 714.8 424.1 716.3 421.9L716.6 421.5L716.7 421.4C722.3 413 726.9 403.8 730.6 393.9C738.7 371.9 742.7 352.2 742.7 335.3C742.7 335.2 742.7 335.1 742.7 335C741.1 309.5 732.9 289.9 718.3 276.9C716.3 275.1 714.1 273.4 711.8 271.7L737.9 226.3C740.7 221.8 742.8 215.9 743.6 208.3C743.6 208.1 743.6 207.9 743.6 207.8V176.8C743.6 176.7 743.6 176.6 743.6 176.4C741.7 154.8 736.7 137.6 728.5 125.3ZM732.4 335.2C732.4 350.9 728.5 369.4 720.9 390.2C713.4 410.8 701.1 428.1 684.4 441.5C667.9 454.8 649.6 461.7 629.9 462H561.1C561 462 561 462 560.9 462C542.8 461.1 526.9 457.6 513.6 451.5C500.6 445.5 490.3 437 483.1 426.2C475.9 415.3 471.5 399.9 470 380.3V349.8C471.6 335.5 478.2 328.3 490.7 327.2H559.5C572 328.3 578.6 335.5 580.2 349.8C580.3 359.3 582.9 366.5 588.2 371.4L588.3 371.5C594.8 377.1 602 377.1 608.2 371.4C608.5 371.2 608.7 370.9 608.9 370.6C613.7 363.7 616.3 353.9 616.6 341.5C616.6 341.4 616.6 341.2 616.6 341.1C616.2 333.7 613.3 327.3 607.8 322.1C604.2 318.6 594.9 313.2 554.6 302.2C526.1 294.4 505 284.6 491.9 273C479.3 261.8 472.4 244.7 471.3 221.9C471 206.2 474.7 187.7 482.4 166.9C489.9 146.3 502.2 129 518.9 115.6C535.4 102.3 553.9 95.4 573.8 95.1H642C660.4 96 676.4 99.5 689.7 105.6C702.7 111.5 713 120.1 720.2 130.9C727.4 141.8 731.8 157.2 733.3 176.8V207.2C731.7 221.5 725.1 228.7 712.6 229.8H642.4C629.6 228.7 623 221.6 621.7 207.2C621.7 195.4 619.3 188.4 614.1 185.1C607.4 179.8 600.2 180 594.2 185.5C593.9 185.8 593.6 186.2 593.3 186.6C589.2 193.5 587 202.9 586.7 215.4C586.7 215.5 586.7 215.7 586.7 215.8C587.1 223.2 590 229.6 595.5 234.9C598.8 238.1 608 243.7 648.7 254.8C677.3 262.6 698.3 272.4 711.4 284C723.8 295.3 730.9 312.4 732.4 335.2ZM252.4 327.3C264.9 328.4 271.5 335.5 273.1 349.8C272.8 361.6 274 368.1 277.3 371.3C277.4 371.4 277.6 371.5 277.7 371.6C284.5 377.1 291.8 377 297.9 371.4C298.3 371.1 298.6 370.7 298.8 370.2C302.8 363.2 305.5 353.9 307.2 341.7C308.7 330.3 309.8 318.9 310.4 307.9C310.4 307.8 310.4 307.7 310.4 307.6V128.3C310.4 128.2 310.4 128.1 310.4 128C309.9 119.6 312.7 112.2 318.9 105.3C325.1 98.4 333.3 95.1 344.1 95.1H386.9C397.7 95.1 405.9 98.4 412.1 105.3C418.3 112.2 421.1 119.7 420.6 128.1C420.6 128.2 420.6 128.3 420.6 128.4V309.6C420 332.4 416.2 355.8 409.2 379C402.4 401.9 390.4 421.3 373.7 436.9C357.2 452.2 336 460.7 310.7 462.2H253.7C235.7 461.3 219.8 457.8 206.5 451.7C193.5 445.7 183.2 437.2 176 426.4C168.8 415.5 164.4 400.1 162.9 380.5V350C164.5 335.7 170.9 328.5 183.2 327.4H252.4V327.3Z" fill="#231F20"/>
</svg>
